<svg width="22" height="22" viewBox="0 0 22 22" fill="none" xmlns="http://www.w3.org/2000/svg">
<path d="M0 1.83333C0 0.82099 0.703705 0 1.57143 0H20.4286C21.2978 0 22 0.82099 22 1.83333C22 2.8474 21.2978 3.66667 20.4286 3.66667H1.57143C0.703705 3.66667 0 2.8474 0 1.83333ZM0 11C0 9.98594 0.703705 9.16667 1.57143 9.16667H20.4286C21.2978 9.16667 22 9.98594 22 11C22 12.0141 21.2978 12.8333 20.4286 12.8333H1.57143C0.703705 12.8333 0 12.0141 0 11ZM20.4286 22H1.57143C0.703705 22 0 21.1807 0 20.1667C0 19.1526 0.703705 18.3333 1.57143 18.3333H20.4286C21.2978 18.3333 22 19.1526 22 20.1667C22 21.1807 21.2978 22 20.4286 22Z" fill="white"/>
</svg>
