<svg width="45" height="45" viewBox="0 0 45 45" fill="none" xmlns="http://www.w3.org/2000/svg">
<path d="M38.5714 0H6.42857C2.87578 0 0 2.87578 0 6.42857V38.5714C0 42.1252 2.87478 45 6.42857 45H38.5714C42.1252 45 45 42.1252 45 38.5714V6.42857C45 2.87578 42.1272 0 38.5714 0ZM38.5714 30.5357C38.5714 32.3106 37.132 33.75 35.3571 33.75H9.64286C7.86797 33.75 6.42857 32.3106 6.42857 30.5357V19.4766L20.3404 26.4345C21.0234 26.769 21.7567 26.9397 22.5 26.9397C23.2433 26.9397 23.9816 26.7702 24.6566 26.4328L38.5714 19.4766V30.5357ZM38.5714 15.8806L23.2232 23.5567C22.7712 23.7827 22.2376 23.7827 21.7858 23.5567L6.42857 15.8806V14.4643C6.42857 12.6894 7.86797 11.25 9.64286 11.25H35.3571C37.132 11.25 38.5714 12.6894 38.5714 14.4643V15.8806Z" fill="#0671E0"/>
</svg>
