<svg width="45" height="45" viewBox="0 0 45 45" fill="none" xmlns="http://www.w3.org/2000/svg">
<path d="M27.3315 17.2969V24.4386C27.3315 24.6194 27.1908 24.76 27.01 24.76H25.865C25.7545 24.76 25.654 24.6998 25.6038 24.6295L22.3292 20.2098V24.4487C22.3292 24.6295 22.1886 24.7701 22.0078 24.7701H20.8627C20.6819 24.7701 20.5413 24.6295 20.5413 24.4487V17.3069C20.5413 17.1261 20.6819 16.9855 20.8627 16.9855H21.9978C22.0982 16.9855 22.2087 17.0357 22.2589 17.1261L25.5335 21.5458V17.3069C25.5335 17.1261 25.6741 16.9855 25.8549 16.9855H27C27.1808 16.9755 27.3315 17.1261 27.3315 17.2969ZM19.0949 16.9755H17.9498C17.769 16.9755 17.6284 17.1161 17.6284 17.2969V24.4386C17.6284 24.6194 17.769 24.76 17.9498 24.76H19.0949C19.2757 24.76 19.4163 24.6194 19.4163 24.4386V17.2969C19.4163 17.1261 19.2757 16.9755 19.0949 16.9755ZM16.3326 22.9621H13.2087V17.2969C13.2087 17.1161 13.0681 16.9755 12.8873 16.9755H11.7422C11.5614 16.9755 11.4208 17.1161 11.4208 17.2969V24.4386C11.4208 24.529 11.4509 24.5993 11.5112 24.6596C11.5714 24.7098 11.6418 24.75 11.7322 24.75H16.3226C16.5034 24.75 16.644 24.6094 16.644 24.4286V23.2835C16.644 23.1127 16.5034 22.9621 16.3326 22.9621ZM33.3582 16.9755H28.7679C28.5971 16.9755 28.4464 17.1161 28.4464 17.2969V24.4386C28.4464 24.6094 28.587 24.76 28.7679 24.76H33.3582C33.5391 24.76 33.6797 24.6194 33.6797 24.4386V23.2935C33.6797 23.1127 33.5391 22.9721 33.3582 22.9721H30.2344V21.7667H33.3582C33.5391 21.7667 33.6797 21.6261 33.6797 21.4453V20.2902C33.6797 20.1094 33.5391 19.9688 33.3582 19.9688H30.2344V18.7634H33.3582C33.5391 18.7634 33.6797 18.6228 33.6797 18.442V17.2969C33.6696 17.1261 33.529 16.9755 33.3582 16.9755ZM45 8.20649V36.8638C44.9899 41.3638 41.3036 45.01 36.7935 45H8.13617C3.63618 44.9899 -0.0100239 41.2935 2.07036e-05 36.7935V8.13617C0.0100653 3.63618 3.70649 -0.0100239 8.20649 2.07036e-05H36.8638C41.3638 0.0100653 45.01 3.69645 45 8.20649ZM38.8125 20.5212C38.8125 13.1886 31.4598 7.22211 22.4297 7.22211C13.3996 7.22211 6.04689 13.1886 6.04689 20.5212C6.04689 27.0904 11.8728 32.5949 19.7478 33.6395C21.6663 34.0513 21.4453 34.7545 21.0134 37.3359C20.9431 37.7478 20.6819 38.9531 22.4297 38.2199C24.1775 37.4866 31.8616 32.6652 35.3069 28.7076C37.6774 26.096 38.8125 23.4542 38.8125 20.5212Z" fill="#0671E0"/>
</svg>
